# xmcd
#
# Track frame offsets: 
#        150
#        12597
#        23642
#        32852
#        44792
#        58380
#        70340
#        81975
#        94740
#        102997
#        114707
#        125242
#        136487
#        147015
#        160095
#
# Disc length: 2259 seconds
#
# Revision: 6
# Processed by: cddbd v1.5.2PL0 Copyright (c) Steve Scherf et al.
# Submitted via: ExactAudioCopyFreeDBPlugin 1.0
#
DISCID=e108d10f
DTITLE=Various Artist - Classic Country - 1960 BIS 1964 - CD 1
DYEAR=1999
DGENRE=Country
TTITLE0=Patsy Cline - Crazy
TTITLE1=Everly Brothers - Cathy's Clown
TTITLE2=Jim Reeves - I Won't Forget You
TTITLE3=Johnny Cash - Ring Of Fire
TTITLE4=Jimmy Dean - Big Bad John
TTITLE5=Brenda Lee - I'm Sorry
TTITLE6=Don Gibson - Sea Of Heartbreak
TTITLE7=Johnny Tillotson - It Keeps Right On A Hurting
TTITLE8=Roger Miller - Dang Me
TTITLE9=George Jones - She Thinks I Still Care
TTITLE10=Ferlin Husky - Wings Of A Dove
TTITLE11=Roy Orbison - Blue Bayou
TTITLE12=Leroy Van Dyke - Walk On By
TTITLE13=Marty Robbins - Devil Woman
TTITLE14=Frank Ifield - I Remember You
EXTD=
EXTT0=
EXTT1=
EXTT2=
EXTT3=
EXTT4=
EXTT5=
EXTT6=
EXTT7=
EXTT8=
EXTT9=
EXTT10=
EXTT11=
EXTT12=
EXTT13=
EXTT14=
PLAYORDER=
